<?xml version="1.0" encoding="UTF-8" standalone="no"?>
<svg
   width="171"
   height="39"
   viewBox="0 0 171 39"
   fill="none"
   version="1.1"
   id="svg6"
   sodipodi:docname="logo.svg"
   inkscape:version="1.1 (c68e22c387, 2021-05-23)"
   xmlns:inkscape="http://www.inkscape.org/namespaces/inkscape"
   xmlns:sodipodi="http://sodipodi.sourceforge.net/DTD/sodipodi-0.dtd"
   xmlns="http://www.w3.org/2000/svg"
   xmlns:svg="http://www.w3.org/2000/svg">
  <defs
     id="defs10" />
  <sodipodi:namedview
     id="namedview8"
     pagecolor="#ffffff"
     bordercolor="#666666"
     borderopacity="1.0"
     inkscape:pageshadow="2"
     inkscape:pageopacity="0.0"
     inkscape:pagecheckerboard="0"
     showgrid="false"
     inkscape:zoom="5.5410707"
     inkscape:cx="85.543034"
     inkscape:cy="19.581053"
     inkscape:window-width="1920"
     inkscape:window-height="1013"
     inkscape:window-x="-9"
     inkscape:window-y="-9"
     inkscape:window-maximized="1"
     inkscape:current-layer="svg6" />
  <path
     d="m 14.9786,12.536 v 4.384 h -9.152 v 4.736 h 6.848 v 4.256 H 5.8266 V 35 H 0.35463 V 12.536 Z m 7.068,7.584 c 0.64,-0.9813 1.44,-1.7493 2.4,-2.304 0.96,-0.576 2.0267,-0.864 3.2,-0.864 v 5.792 h -1.504 c -1.3653,0 -2.3893,0.2987 -3.072,0.896 -0.6826,0.576 -1.024,1.6 -1.024,3.072 V 35 h -5.472 V 17.144 h 5.472 z m 23.7675,5.664 c 0,0.512 -0.032,1.0453 -0.096,1.6 h -12.384 c 0.0854,1.1093 0.4374,1.9627 1.056,2.56 0.64,0.576 1.4187,0.864 2.336,0.864 1.3654,0 2.3147,-0.576 2.848,-1.728 h 5.824 c -0.2986,1.1733 -0.8426,2.2293 -1.632,3.168 -0.768,0.9387 -1.7386,1.6747 -2.912,2.208 -1.1733,0.5333 -2.4853,0.8 -3.936,0.8 -1.7493,0 -3.3066,-0.3733 -4.672,-1.12 -1.3653,-0.7467 -2.432,-1.8133 -3.2,-3.2 -0.768,-1.3867 -1.152,-3.008 -1.152,-4.864 0,-1.856 0.3734,-3.4773 1.12,-4.864 0.768,-1.3867 1.8347,-2.4533 3.2,-3.2 1.3654,-0.7467 2.9334,-1.12 4.704,-1.12 1.728,0 3.264,0.3627 4.608,1.088 1.344,0.7253 2.3894,1.76 3.136,3.104 0.768,1.344 1.152,2.912 1.152,4.704 z m -5.6,-1.44 c 0,-0.9387 -0.32,-1.6853 -0.96,-2.24 -0.64,-0.5547 -1.44,-0.832 -2.4,-0.832 -0.9173,0 -1.696,0.2667 -2.336,0.8 -0.6186,0.5333 -1.0026,1.2907 -1.152,2.272 z m 24.0388,1.44 c 0,0.512 -0.032,1.0453 -0.096,1.6 h -12.384 c 0.0853,1.1093 0.4373,1.9627 1.056,2.56 0.64,0.576 1.4186,0.864 2.336,0.864 1.3653,0 2.3146,-0.576 2.848,-1.728 h 5.824 c -0.2987,1.1733 -0.8427,2.2293 -1.632,3.168 -0.768,0.9387 -1.7387,1.6747 -2.912,2.208 -1.1734,0.5333 -2.4854,0.8 -3.936,0.8 -1.7494,0 -3.3067,-0.3733 -4.672,-1.12 -1.3654,-0.7467 -2.432,-1.8133 -3.2,-3.2 -0.768,-1.3867 -1.152,-3.008 -1.152,-4.864 0,-1.856 0.3733,-3.4773 1.12,-4.864 0.768,-1.3867 1.8346,-2.4533 3.2,-3.2 1.3653,-0.7467 2.9333,-1.12 4.704,-1.12 1.728,0 3.264,0.3627 4.608,1.088 1.344,0.7253 2.3893,1.76 3.136,3.104 0.768,1.344 1.152,2.912 1.152,4.704 z m -5.6,-1.44 c 0,-0.9387 -0.32,-1.6853 -0.96,-2.24 -0.64,-0.5547 -1.44,-0.832 -2.4,-0.832 -0.9174,0 -1.696,0.2667 -2.336,0.8 -0.6187,0.5333 -1.0027,1.2907 -1.152,2.272 z m 29.9907,-7.392 c 2.2187,0 3.9787,0.672 5.28,2.016 1.3224,1.344 1.9844,3.2107 1.9844,5.6 V 35 h -5.4404 v -9.696 c 0,-1.152 -0.3093,-2.0373 -0.928,-2.656 -0.5973,-0.64 -1.4293,-0.96 -2.496,-0.96 -1.0666,0 -1.9093,0.32 -2.528,0.96 -0.5973,0.6187 -0.896,1.504 -0.896,2.656 V 35 h -5.44 v -9.696 c 0,-1.152 -0.3093,-2.0373 -0.928,-2.656 -0.5973,-0.64 -1.4293,-0.96 -2.496,-0.96 -1.0666,0 -1.9093,0.32 -2.528,0.96 -0.5973,0.6187 -0.896,1.504 -0.896,2.656 V 35 h -5.472 V 17.144 h 5.472 v 2.24 c 0.5547,-0.7467 1.28,-1.3333 2.176,-1.76 0.896,-0.448 1.9094,-0.672 3.04,-0.672 1.344,0 2.5387,0.288 3.584,0.864 1.0667,0.576 1.8987,1.3973 2.496,2.464 0.6187,-0.9813 1.4614,-1.7813 2.528,-2.4 1.0667,-0.6187 2.2294,-0.928 3.488,-0.928 z m 12.5634,-1.664 c -0.96,0 -1.75,-0.2773 -2.368,-0.832 -0.598,-0.576 -0.896,-1.28 -0.896,-2.112 0,-0.8533 0.298,-1.5573 0.896,-2.112 0.618,-0.576 1.408,-0.864 2.368,-0.864 0.938,0 1.706,0.288 2.304,0.864 0.618,0.5547 0.928,1.2587 0.928,2.112 0,0.832 -0.31,1.536 -0.928,2.112 -0.598,0.5547 -1.366,0.832 -2.304,0.832 z m 2.72,1.856 V 35 H 98.455 V 17.144 Z m 13.565,-0.192 c 2.091,0 3.755,0.6827 4.992,2.048 1.259,1.344 1.888,3.2 1.888,5.568 V 35 h -5.44 v -9.696 c 0,-1.1947 -0.309,-2.1227 -0.928,-2.784 -0.619,-0.6613 -1.451,-0.992 -2.496,-0.992 -1.045,0 -1.877,0.3307 -2.496,0.992 -0.619,0.6613 -0.928,1.5893 -0.928,2.784 V 35 h -5.472 V 17.144 h 5.472 v 2.368 c 0.555,-0.7893 1.301,-1.408 2.24,-1.856 0.939,-0.4693 1.995,-0.704 3.168,-0.704 z m 8.315,9.088 c 0,-1.8347 0.341,-3.4453 1.024,-4.832 0.704,-1.3867 1.653,-2.4533 2.848,-3.2 1.194,-0.7467 2.528,-1.12 4,-1.12 1.173,0 2.24,0.2453 3.2,0.736 0.981,0.4907 1.749,1.152 2.304,1.984 V 11.32 h 5.472 V 35 h -5.472 v -2.56 c -0.512,0.8533 -1.248,1.536 -2.208,2.048 -0.939,0.512 -2.038,0.768 -3.296,0.768 -1.472,0 -2.806,-0.3733 -4,-1.12 -1.195,-0.768 -2.144,-1.8453 -2.848,-3.232 -0.683,-1.408 -1.024,-3.0293 -1.024,-4.864 z m 13.376,0.032 c 0,-1.3653 -0.384,-2.4427 -1.152,-3.232 -0.747,-0.7893 -1.664,-1.184 -2.752,-1.184 -1.088,0 -2.016,0.3947 -2.784,1.184 -0.747,0.768 -1.12,1.8347 -1.12,3.2 0,1.3653 0.373,2.4533 1.12,3.264 0.768,0.7893 1.696,1.184 2.784,1.184 1.088,0 2.005,-0.3947 2.752,-1.184 0.768,-0.7893 1.152,-1.8667 1.152,-3.232 z"
     fill="#001f53"
     id="path2" />
  <circle
     cx="157"
     cy="27"
     r="8"
     fill="#246ee9"
     id="circle4" />
</svg>
